<svg xmlns="http://www.w3.org/2000/svg" xmlns:xlink="http://www.w3.org/1999/xlink" width="500" zoomAndPan="magnify" viewBox="0 0 375 374.999991" height="500" preserveAspectRatio="xMidYMid meet" version="1.0"><defs><g/><clipPath id="4101126027"><path d="M 101.910156 91.269531 L 272.910156 91.269531 L 272.910156 262.269531 L 101.910156 262.269531 Z M 101.910156 91.269531 " clip-rule="nonzero"/></clipPath></defs><rect x="-37.5" width="450" fill="#ffffff" y="-37.499999" height="449.999989" fill-opacity="1"/><rect x="-37.5" width="450" fill="#ffffff" y="-37.499999" height="449.999989" fill-opacity="1"/><rect x="-37.5" width="450" fill="#9aa6a4" y="-37.499999" height="449.999989" fill-opacity="1"/><g clip-path="url(#4101126027)"><path fill="#ffffff" d="M 271.5625 175.320312 C 270.992188 174.707031 257.488281 160.421875 240.410156 160.421875 C 226.476562 160.421875 214.921875 169.933594 210.835938 173.761719 L 200.019531 162.945312 L 190.421875 153.351562 C 191.378906 152.320312 192.703125 150.8125 194.148438 148.910156 C 195.023438 147.761719 195.859375 146.574219 196.628906 145.390625 C 201.367188 138.085938 203.769531 130.816406 203.769531 123.773438 C 203.769531 106.699219 189.484375 93.191406 188.875 92.625 L 187.414062 91.269531 L 185.957031 92.625 C 185.347656 93.191406 171.058594 106.699219 171.058594 123.773438 C 171.058594 137.707031 180.570312 149.261719 184.402344 153.351562 L 174.195312 163.558594 L 173.578125 164.171875 L 163.988281 173.761719 C 159.902344 169.933594 148.339844 160.421875 134.414062 160.421875 C 117.335938 160.421875 103.832031 174.707031 103.261719 175.320312 L 101.910156 176.777344 L 103.261719 178.234375 C 103.832031 178.84375 117.335938 193.132812 134.414062 193.132812 C 148.347656 193.132812 159.902344 183.621094 163.988281 179.789062 L 184.394531 200.195312 C 180.5625 204.285156 171.054688 215.84375 171.054688 229.773438 C 171.054688 246.847656 185.339844 260.355469 185.949219 260.921875 L 187.410156 262.277344 L 188.867188 260.921875 C 189.476562 260.355469 203.765625 246.847656 203.765625 229.773438 C 203.765625 215.839844 194.253906 204.285156 190.421875 200.195312 L 200.507812 190.113281 L 210.835938 179.785156 C 214.921875 183.617188 226.484375 193.125 240.410156 193.125 C 257.488281 193.125 270.992188 178.839844 271.5625 178.230469 L 272.914062 176.769531 Z M 187.414062 97.25 C 190.917969 101.050781 199.5 111.617188 199.5 123.773438 C 199.5 131.496094 195.992188 138.527344 193.046875 143.066406 C 192.332031 144.164062 191.558594 145.261719 190.753906 146.328125 C 189.472656 148.011719 188.292969 149.367188 187.421875 150.304688 C 183.925781 146.503906 175.335938 135.9375 175.335938 123.773438 C 175.328125 111.621094 183.914062 101.050781 187.414062 97.25 Z M 134.414062 188.855469 C 122.253906 188.855469 111.6875 180.273438 107.886719 176.769531 C 111.6875 173.269531 122.253906 164.683594 134.414062 164.683594 C 146.570312 164.683594 157.136719 173.269531 160.9375 176.769531 C 157.136719 180.273438 146.570312 188.855469 134.414062 188.855469 Z M 187.414062 256.296875 C 183.914062 252.496094 175.328125 241.929688 175.328125 229.773438 C 175.328125 217.613281 183.914062 207.046875 187.414062 203.246094 C 190.917969 207.046875 199.5 217.613281 199.5 229.773438 C 199.5 241.929688 190.910156 252.496094 187.414062 256.296875 Z M 197.8125 186.761719 L 187.410156 197.160156 L 167.019531 176.769531 L 177.214844 166.578125 L 187.410156 156.382812 L 197.601562 166.578125 L 207.796875 176.769531 Z M 240.410156 188.855469 C 228.253906 188.855469 217.6875 180.273438 213.886719 176.769531 C 217.6875 173.269531 228.253906 164.683594 240.410156 164.683594 C 252.570312 164.683594 263.136719 173.269531 266.9375 176.769531 C 263.136719 180.273438 252.5625 188.855469 240.410156 188.855469 Z M 239.226562 139.148438 C 245.101562 139.148438 249.886719 134.367188 249.886719 128.492188 C 249.886719 122.617188 245.101562 117.832031 239.226562 117.832031 C 233.351562 117.832031 228.570312 122.617188 228.570312 128.492188 C 228.570312 134.367188 233.351562 139.148438 239.226562 139.148438 Z M 239.226562 122.101562 C 242.746094 122.101562 245.613281 124.96875 245.613281 128.492188 C 245.613281 132.011719 242.746094 134.878906 239.226562 134.878906 C 235.707031 134.878906 232.839844 132.011719 232.839844 128.492188 C 232.839844 124.964844 235.703125 122.101562 239.226562 122.101562 Z M 135.597656 139.148438 C 141.472656 139.148438 146.253906 134.367188 146.253906 128.492188 C 146.253906 122.617188 141.472656 117.832031 135.597656 117.832031 C 129.722656 117.832031 124.9375 122.617188 124.9375 128.492188 C 124.9375 134.367188 129.722656 139.148438 135.597656 139.148438 Z M 135.597656 122.101562 C 139.117188 122.101562 141.984375 124.96875 141.984375 128.492188 C 141.984375 132.011719 139.117188 134.878906 135.597656 134.878906 C 132.078125 134.878906 129.210938 132.011719 129.210938 128.492188 C 129.210938 124.964844 132.078125 122.101562 135.597656 122.101562 Z M 239.226562 214.398438 C 233.351562 214.398438 228.570312 219.183594 228.570312 225.058594 C 228.570312 230.933594 233.351562 235.714844 239.226562 235.714844 C 245.101562 235.714844 249.886719 230.933594 249.886719 225.058594 C 249.886719 219.183594 245.101562 214.398438 239.226562 214.398438 Z M 239.226562 231.445312 C 235.707031 231.445312 232.839844 228.578125 232.839844 225.058594 C 232.839844 221.535156 235.707031 218.667969 239.226562 218.667969 C 242.746094 218.667969 245.613281 221.535156 245.613281 225.058594 C 245.613281 228.578125 242.746094 231.445312 239.226562 231.445312 Z M 135.597656 214.398438 C 129.722656 214.398438 124.9375 219.183594 124.9375 225.058594 C 124.9375 230.933594 129.722656 235.714844 135.597656 235.714844 C 141.472656 235.714844 146.253906 230.933594 146.253906 225.058594 C 146.253906 219.183594 141.476562 214.398438 135.597656 214.398438 Z M 135.597656 231.445312 C 132.078125 231.445312 129.210938 228.578125 129.210938 225.058594 C 129.210938 221.535156 132.078125 218.667969 135.597656 218.667969 C 139.117188 218.667969 141.984375 221.535156 141.984375 225.058594 C 141.984375 228.578125 139.121094 231.445312 135.597656 231.445312 Z M 135.597656 231.445312 " fill-opacity="1" fill-rule="nonzero"/></g><g fill="#ffffff" fill-opacity="1"><g transform="translate(79.55883, 310.242548)"><g><path d="M 24.5625 -22.5 C 24.5625 -19.5625 23.484375 -17.332031 21.328125 -15.8125 C 19.171875 -14.300781 16.238281 -13.546875 12.53125 -13.546875 L 8.578125 -13.546875 L 8.578125 0 L 4.125 0 L 4.125 -30.390625 L 14 -30.390625 C 17.09375 -30.390625 19.625 -29.6875 21.59375 -28.28125 C 23.570312 -26.875 24.5625 -24.945312 24.5625 -22.5 Z M 8.578125 -14.875 L 12.671875 -14.875 C 14.109375 -14.875 15.335938 -15.148438 16.359375 -15.703125 C 17.390625 -16.253906 18.132812 -16.957031 18.59375 -17.8125 C 19.414062 -19.34375 19.828125 -20.828125 19.828125 -22.265625 C 19.828125 -22.972656 19.644531 -23.816406 19.28125 -24.796875 C 18.539062 -26.804688 17.023438 -28.117188 14.734375 -28.734375 C 12.535156 -28.734375 10.484375 -28.472656 8.578125 -27.953125 Z M 8.578125 -14.875 "/></g></g></g><g fill="#ffffff" fill-opacity="1"><g transform="translate(115.73141, 310.242548)"><g><path d="M 4.125 0 L 4.125 -30.390625 L 8.625 -30.390625 L 8.625 -2.484375 C 10.5 -1.929688 12 -1.65625 13.125 -1.65625 L 21.4375 -3.078125 L 20.890625 0 Z M 4.125 0 "/></g></g></g><g fill="#ffffff" fill-opacity="1"><g transform="translate(149.195747, 310.242548)"><g><path d="M 0.453125 0 L 14.09375 -31.125 L 14.78125 -31.125 L 28.421875 0 L 23.40625 0 L 19.96875 -8.265625 L 6.328125 -8.265625 L 2.9375 0 Z M 7.03125 -10 L 19.234375 -10 L 13.171875 -24.875 Z M 7.03125 -10 "/></g></g></g><g fill="#ffffff" fill-opacity="1"><g transform="translate(189.178231, 310.242548)"><g><path d="M 14.5 0 L 10.046875 0 L 10.046875 -28.1875 C 9.015625 -28.425781 7.976562 -28.546875 6.9375 -28.546875 L 0.734375 -27.125 L 0.453125 -30.390625 L 24.09375 -30.390625 L 23.875 -27.125 L 17.625 -28.546875 C 16.582031 -28.546875 15.539062 -28.425781 14.5 -28.1875 Z M 14.5 0 "/></g></g></g><g fill="#ffffff" fill-opacity="1"><g transform="translate(224.845869, 310.242548)"><g><path d="M 0.734375 0 L 0.734375 -0.453125 L 18.265625 -27.953125 C 16.460938 -28.472656 14.796875 -28.734375 13.265625 -28.734375 L 3.8125 -27.3125 L 3.34375 -30.390625 L 24.828125 -30.390625 L 24.828125 -29.9375 L 6.75 -1.84375 L 23.234375 -3.078125 L 23.6875 0 Z M 0.734375 0 "/></g></g></g><g fill="#ffffff" fill-opacity="1"><g transform="translate(262.166011, 310.242548)"><g><path d="M 17.953125 -30.9375 C 21.929688 -30.9375 25.21875 -29.628906 27.8125 -27.015625 C 30.414062 -24.398438 31.71875 -20.765625 31.71875 -16.109375 C 31.71875 -13.109375 31.195312 -10.484375 30.15625 -8.234375 C 29.113281 -5.984375 27.753906 -4.25 26.078125 -3.03125 C 22.796875 -0.644531 19.179688 0.546875 15.234375 0.546875 C 11.285156 0.546875 8.019531 -0.773438 5.4375 -3.421875 C 2.851562 -6.066406 1.5625 -9.71875 1.5625 -14.375 C 1.5625 -16.789062 1.90625 -18.96875 2.59375 -20.90625 C 3.28125 -22.851562 4.179688 -24.4375 5.296875 -25.65625 C 6.421875 -26.882812 7.71875 -27.910156 9.1875 -28.734375 C 11.875 -30.203125 14.796875 -30.9375 17.953125 -30.9375 Z M 8.71875 -5.234375 C 9.519531 -3.890625 10.59375 -2.84375 11.9375 -2.09375 C 13.28125 -1.34375 14.832031 -0.96875 16.59375 -0.96875 C 18.351562 -0.96875 19.921875 -1.410156 21.296875 -2.296875 C 22.671875 -3.179688 23.742188 -4.34375 24.515625 -5.78125 C 26.078125 -8.65625 26.859375 -11.75 26.859375 -15.0625 C 26.859375 -19.125 26.046875 -22.394531 24.421875 -24.875 C 22.617188 -27.664062 19.632812 -29.0625 15.46875 -29.0625 C 12.5 -28.019531 10.25 -26.226562 8.71875 -23.6875 C 7.1875 -21.144531 6.421875 -18.269531 6.421875 -15.0625 C 6.421875 -11.144531 7.1875 -7.867188 8.71875 -5.234375 Z M 8.71875 -5.234375 "/></g></g></g><g fill="#ffffff" fill-opacity="1"><g transform="translate(129.221272, 51.749975)"><g><path d="M 2.4375 -8.203125 C 2.4375 -7.765625 2.609375 -7.359375 2.953125 -6.984375 C 3.296875 -6.609375 3.710938 -6.273438 4.203125 -5.984375 C 4.703125 -5.703125 5.195312 -5.414062 5.6875 -5.125 C 6.175781 -4.832031 6.59375 -4.46875 6.9375 -4.03125 C 7.28125 -3.601562 7.453125 -3.128906 7.453125 -2.609375 C 7.453125 -1.785156 7.148438 -1.113281 6.546875 -0.59375 C 5.941406 -0.0703125 5.125 0.1875 4.09375 0.1875 C 3.0625 0.1875 2.039062 -0.0078125 1.03125 -0.40625 L 1.03125 -1.109375 C 2.050781 -0.597656 2.914062 -0.34375 3.625 -0.34375 C 4.34375 -0.34375 4.898438 -0.515625 5.296875 -0.859375 C 5.703125 -1.210938 5.90625 -1.703125 5.90625 -2.328125 C 5.90625 -2.742188 5.738281 -3.125 5.40625 -3.46875 C 5.082031 -3.8125 4.6875 -4.109375 4.21875 -4.359375 C 3.75 -4.617188 3.273438 -4.882812 2.796875 -5.15625 C 2.328125 -5.425781 1.925781 -5.769531 1.59375 -6.1875 C 1.269531 -6.601562 1.109375 -7.101562 1.109375 -7.6875 C 1.109375 -8.28125 1.367188 -8.832031 1.890625 -9.34375 C 2.421875 -9.851562 3.207031 -10.109375 4.25 -10.109375 C 4.925781 -10.109375 5.785156 -9.953125 6.828125 -9.640625 L 6.671875 -8.625 C 5.328125 -9.207031 4.171875 -9.5 3.203125 -9.5 C 2.691406 -9.25 2.4375 -8.816406 2.4375 -8.203125 Z M 2.4375 -8.203125 "/></g></g></g><g fill="#ffffff" fill-opacity="1"><g transform="translate(141.191322, 51.749975)"><g><path d="M 4.734375 0 L 3.28125 0 L 3.28125 -9.203125 C 2.945312 -9.285156 2.609375 -9.328125 2.265625 -9.328125 L 0.234375 -8.859375 L 0.15625 -9.9375 L 7.875 -9.9375 L 7.796875 -8.859375 L 5.765625 -9.328125 C 5.421875 -9.328125 5.078125 -9.285156 4.734375 -9.203125 Z M 4.734375 0 "/></g></g></g><g fill="#ffffff" fill-opacity="1"><g transform="translate(152.846373, 51.749975)"><g><path d="M 5.859375 -10.109375 C 7.160156 -10.109375 8.234375 -9.679688 9.078125 -8.828125 C 9.929688 -7.972656 10.359375 -6.785156 10.359375 -5.265625 C 10.359375 -4.285156 10.1875 -3.425781 9.84375 -2.6875 C 9.507812 -1.957031 9.066406 -1.390625 8.515625 -0.984375 C 7.453125 -0.203125 6.273438 0.1875 4.984375 0.1875 C 3.691406 0.1875 2.625 -0.242188 1.78125 -1.109375 C 0.9375 -1.984375 0.515625 -3.175781 0.515625 -4.6875 C 0.515625 -5.476562 0.625 -6.191406 0.84375 -6.828125 C 1.070312 -7.460938 1.367188 -7.976562 1.734375 -8.375 C 2.097656 -8.78125 2.519531 -9.117188 3 -9.390625 C 3.875 -9.867188 4.828125 -10.109375 5.859375 -10.109375 Z M 2.84375 -1.703125 C 3.101562 -1.265625 3.453125 -0.921875 3.890625 -0.671875 C 4.335938 -0.429688 4.847656 -0.3125 5.421875 -0.3125 C 5.992188 -0.3125 6.503906 -0.457031 6.953125 -0.75 C 7.410156 -1.039062 7.765625 -1.421875 8.015625 -1.890625 C 8.523438 -2.828125 8.78125 -3.835938 8.78125 -4.921875 C 8.78125 -6.253906 8.515625 -7.320312 7.984375 -8.125 C 7.390625 -9.039062 6.414062 -9.5 5.0625 -9.5 C 4.082031 -9.15625 3.34375 -8.566406 2.84375 -7.734375 C 2.34375 -6.910156 2.09375 -5.972656 2.09375 -4.921875 C 2.09375 -3.640625 2.34375 -2.566406 2.84375 -1.703125 Z M 2.84375 -1.703125 "/></g></g></g><g fill="#ffffff" fill-opacity="1"><g transform="translate(167.351415, 51.749975)"><g><path d="M 5.921875 0.1875 C 4.367188 0.1875 3.0625 -0.234375 2 -1.078125 C 0.945312 -1.921875 0.421875 -3.125 0.421875 -4.6875 C 0.421875 -5.613281 0.59375 -6.4375 0.9375 -7.15625 C 1.289062 -7.875 1.753906 -8.4375 2.328125 -8.84375 C 3.472656 -9.6875 4.757812 -10.109375 6.1875 -10.109375 C 7.019531 -10.109375 7.890625 -9.957031 8.796875 -9.65625 L 8.640625 -8.640625 C 8.171875 -8.835938 7.804688 -8.988281 7.546875 -9.09375 C 6.796875 -9.363281 6.039062 -9.5 5.28125 -9.5 C 4.226562 -9.257812 3.421875 -8.738281 2.859375 -7.9375 C 2.296875 -7.132812 2.015625 -6.132812 2.015625 -4.9375 C 2.015625 -3.46875 2.394531 -2.332031 3.15625 -1.53125 C 3.925781 -0.738281 4.941406 -0.34375 6.203125 -0.34375 C 7.460938 -0.34375 8.40625 -0.613281 9.03125 -1.15625 L 9.03125 -0.328125 C 8.164062 0.015625 7.128906 0.1875 5.921875 0.1875 Z M 5.921875 0.1875 "/></g></g></g><g fill="#ffffff" fill-opacity="1"><g transform="translate(180.461457, 51.749975)"><g><path d="M 2.875 0 L 1.34375 0 L 1.34375 -9.9375 L 2.875 -9.9375 L 2.875 -5.046875 L 7.515625 -9.9375 L 8.5 -9.9375 L 3.8125 -5.3125 L 9.140625 0 L 7.21875 0.1875 L 2.875 -4.890625 Z M 2.875 0 "/></g></g></g><g fill="#ffffff" fill-opacity="1"><g transform="translate(193.226505, 51.749975)"><g><path d="M 2.8125 -4.921875 L 2.8125 0 L 1.34375 0 L 1.34375 -9.9375 L 2.8125 -9.9375 L 2.8125 -5.484375 L 7.34375 -5.484375 L 7.34375 -9.9375 L 8.8125 -9.9375 L 8.8125 0 L 7.34375 0 L 7.34375 -4.921875 Z M 2.8125 -4.921875 "/></g></g></g><g fill="#ffffff" fill-opacity="1"><g transform="translate(207.011553, 51.749975)"><g><path d="M 5.859375 -10.109375 C 7.160156 -10.109375 8.234375 -9.679688 9.078125 -8.828125 C 9.929688 -7.972656 10.359375 -6.785156 10.359375 -5.265625 C 10.359375 -4.285156 10.1875 -3.425781 9.84375 -2.6875 C 9.507812 -1.957031 9.066406 -1.390625 8.515625 -0.984375 C 7.453125 -0.203125 6.273438 0.1875 4.984375 0.1875 C 3.691406 0.1875 2.625 -0.242188 1.78125 -1.109375 C 0.9375 -1.984375 0.515625 -3.175781 0.515625 -4.6875 C 0.515625 -5.476562 0.625 -6.191406 0.84375 -6.828125 C 1.070312 -7.460938 1.367188 -7.976562 1.734375 -8.375 C 2.097656 -8.78125 2.519531 -9.117188 3 -9.390625 C 3.875 -9.867188 4.828125 -10.109375 5.859375 -10.109375 Z M 2.84375 -1.703125 C 3.101562 -1.265625 3.453125 -0.921875 3.890625 -0.671875 C 4.335938 -0.429688 4.847656 -0.3125 5.421875 -0.3125 C 5.992188 -0.3125 6.503906 -0.457031 6.953125 -0.75 C 7.410156 -1.039062 7.765625 -1.421875 8.015625 -1.890625 C 8.523438 -2.828125 8.78125 -3.835938 8.78125 -4.921875 C 8.78125 -6.253906 8.515625 -7.320312 7.984375 -8.125 C 7.390625 -9.039062 6.414062 -9.5 5.0625 -9.5 C 4.082031 -9.15625 3.34375 -8.566406 2.84375 -7.734375 C 2.34375 -6.910156 2.09375 -5.972656 2.09375 -4.921875 C 2.09375 -3.640625 2.34375 -2.566406 2.84375 -1.703125 Z M 2.84375 -1.703125 "/></g></g></g><g fill="#ffffff" fill-opacity="1"><g transform="translate(221.516595, 51.749975)"><g><path d="M 1.34375 0 L 1.34375 -9.9375 L 2.8125 -9.9375 L 2.8125 -0.8125 C 3.425781 -0.632812 3.921875 -0.546875 4.296875 -0.546875 L 7 -1 L 6.828125 0 Z M 1.34375 0 "/></g></g></g><g fill="#ffffff" fill-opacity="1"><g transform="translate(232.451642, 51.749975)"><g><path d="M 6.640625 -2.359375 L 9.953125 -9.9375 L 11.484375 -9.9375 L 12.046875 0 L 10.515625 0 L 10.109375 -8.53125 L 10.046875 -8.53125 L 6.265625 0 L 6.0625 0 L 2.359375 -8.1875 L 2.296875 -8.1875 L 1.890625 0 L 1.234375 0 L 1.78125 -9.9375 L 3.1875 -9.9375 Z M 6.640625 -2.359375 "/></g></g></g></svg>